<svg xmlns="http://www.w3.org/2000/svg" version="1.1" xmlns:xlink="http://www.w3.org/1999/xlink" xmlns:svgjs="http://svgjs.dev/svgjs" width="1000" height="1000" viewBox="0 0 1000 1000"><rect width="1000" height="1000" fill="#ffffff"></rect><g transform="matrix(0.7,0,0,0.7,149.5757589133501,420.3049332299395)"><svg viewBox="0 0 396 90" data-background-color="#ffffff" preserveAspectRatio="xMidYMid meet" height="227" width="1000" xmlns="http://www.w3.org/2000/svg" xmlns:xlink="http://www.w3.org/1999/xlink"><g id="tight-bounds" transform="matrix(1,0,0,1,0.23999924330479416,0.13880433798266267)"><svg viewBox="0 0 395.52 89.72239132403469" height="89.72239132403469" width="395.52"><g><svg viewBox="0 0 532.9082540713276 120.8884580086867" height="89.72239132403469" width="395.52"><g transform="matrix(1,0,0,1,137.38825407132762,16.707449695846)"><svg viewBox="0 0 395.52 87.4735586169947" height="87.4735586169947" width="395.52"><g id="textblocktransform"><svg viewBox="0 0 395.52 87.4735586169947" height="87.4735586169947" width="395.52" id="textblock"><g><svg viewBox="0 0 395.52 61.357310481212906" height="61.357310481212906" width="395.52"><g transform="matrix(1,0,0,1,0,0)"><svg width="395.52" viewBox="2.200000047683716 -35 227.52999877929688 35.29999923706055" height="61.357310481212906" data-palette-color="#485663"><path d="M19.25-3.9L19.25-3.9 20-0.95Q16 0.25 12.95 0.25L12.95 0.25Q7.6 0.25 4.9-3.25 2.2-6.75 2.2-12.9 2.2-19.05 5-22.28 7.8-25.5 13.25-25.5L13.25-25.5Q15.6-25.5 19.85-24.3L19.85-24.3 18.35-21.4Q15.6-22.2 13.4-22.2L13.4-22.2Q9.6-22.2 7.93-19.95 6.25-17.7 6.25-12.85L6.25-12.85Q6.25-3 13.3-3L13.3-3Q16.1-3 19.25-3.9ZM37-14.95L37-14.95 39.05-14.95Q39.05-19.5 37.9-20.88 36.75-22.25 32.8-22.25 28.85-22.25 26.1-21.2L26.1-21.2 25.4-24.1Q29.6-25.5 34.1-25.5L34.1-25.5Q42.9-25.5 42.9-16.7L42.9-16.7 42.9 0 40.7 0 39.4-2.95Q37.1-1.05 35.42-0.38 33.75 0.3 31.55 0.3L31.55 0.3Q28.05 0.3 26.1-1.78 24.15-3.85 24.15-7.25L24.15-7.25Q24.15-14.95 37-14.95ZM39.1-6.55L39.1-11.8 36.85-11.8Q31.75-11.8 29.82-10.8 27.9-9.8 27.9-7.68 27.9-5.55 29-4.2 30.1-2.85 31.87-2.85 33.65-2.85 35.27-3.68 36.9-4.5 39.1-6.55L39.1-6.55ZM55.75-19.1L55.75-19.1 55.75 0 52 0 52-25 54.4-25 55-22.05Q57.4-23.95 59-24.73 60.6-25.5 62.65-25.5L62.65-25.5Q63.65-25.5 64.15-25.4L64.15-25.4 64.85-25.2 64.25-21.75Q63.35-22.05 61.8-22.05L61.8-22.05Q58.8-22.05 55.75-19.1ZM87.89-11.7L87.89-11.7 71.94-11.7Q71.94-6.9 74.22-4.9 76.49-2.9 79.94-2.9L79.94-2.9Q81.69-2.9 82.39-3.08 83.09-3.25 83.72-3.43 84.34-3.6 84.59-3.7L84.59-3.7Q85.84-4.05 86.74-4.35L86.74-4.35 87.34-1.45Q82.34 0.3 79.54 0.3L79.54 0.3Q74.39 0.3 71.29-2.83 68.19-5.95 68.19-12.23 68.19-18.5 71.12-22 74.04-25.5 78.52-25.5 82.99-25.5 85.49-22.6 87.99-19.7 87.99-14.75L87.99-14.75Q87.99-13.4 87.89-11.7ZM72.19-14.55L72.19-14.55 84.39-14.55Q84.39-18.25 83.09-20.25 81.79-22.25 78.57-22.25 75.34-22.25 73.84-20.1 72.34-17.95 72.19-14.55ZM112.34-11.7L112.34-11.7 96.39-11.7Q96.39-6.9 98.67-4.9 100.94-2.9 104.39-2.9L104.39-2.9Q106.14-2.9 106.84-3.08 107.54-3.25 108.17-3.43 108.79-3.6 109.04-3.7L109.04-3.7Q110.29-4.05 111.19-4.35L111.19-4.35 111.79-1.45Q106.79 0.3 103.99 0.3L103.99 0.3Q98.84 0.3 95.74-2.83 92.64-5.95 92.64-12.23 92.64-18.5 95.57-22 98.49-25.5 102.97-25.5 107.44-25.5 109.94-22.6 112.44-19.7 112.44-14.75L112.44-14.75Q112.44-13.4 112.34-11.7ZM96.64-14.55L96.64-14.55 108.84-14.55Q108.84-18.25 107.54-20.25 106.24-22.25 103.02-22.25 99.79-22.25 98.29-20.1 96.79-17.95 96.64-14.55ZM123.19-19.1L123.19-19.1 123.19 0 119.44 0 119.44-25 121.84-25 122.44-22.05Q124.84-23.95 126.44-24.73 128.04-25.5 130.09-25.5L130.09-25.5Q131.09-25.5 131.59-25.4L131.59-25.4 132.29-25.2 131.69-21.75Q130.79-22.05 129.24-22.05L129.24-22.05Q126.24-22.05 123.19-19.1ZM156.74-3.25L156.74 0 137.99 0 137.99-35 141.74-35 141.74-3.25 156.74-3.25ZM172.43-14.95L172.43-14.95 174.48-14.95Q174.48-19.5 173.33-20.88 172.18-22.25 168.23-22.25 164.28-22.25 161.53-21.2L161.53-21.2 160.83-24.1Q165.03-25.5 169.53-25.5L169.53-25.5Q178.33-25.5 178.33-16.7L178.33-16.7 178.33 0 176.13 0 174.83-2.95Q172.53-1.05 170.86-0.38 169.18 0.3 166.98 0.3L166.98 0.3Q163.48 0.3 161.53-1.78 159.58-3.85 159.58-7.25L159.58-7.25Q159.58-14.95 172.43-14.95ZM174.53-6.55L174.53-11.8 172.28-11.8Q167.18-11.8 165.26-10.8 163.33-9.8 163.33-7.68 163.33-5.55 164.43-4.2 165.53-2.85 167.31-2.85 169.08-2.85 170.71-3.68 172.33-4.5 174.53-6.55L174.53-6.55ZM187.43 0L187.43-35 191.18-35 191.18-22.5Q195.48-25.55 198.88-25.55L198.88-25.55Q207.88-25.55 207.88-12.6L207.88-12.6Q207.88-5.25 204.68-2.3L204.68-2.3Q201.83 0.3 197.98 0.3L197.98 0.3Q196.03 0.3 194.03-0.58 192.03-1.45 190.73-2.45L190.73-2.45 189.63 0 187.43 0ZM191.18-18.95L191.18-18.95 191.18-5.35Q192.18-4.2 193.86-3.55 195.53-2.9 197.13-2.9L197.13-2.9Q201.03-2.9 202.58-5.2 204.13-7.5 204.13-12.4 204.13-17.3 202.58-19.8 201.03-22.3 198.63-22.3L198.63-22.3Q195.03-22.3 191.18-18.95ZM212.88-1.65L213.78-4.45Q217.03-2.95 219.98-2.95 222.93-2.95 224.45-4.13 225.98-5.3 225.98-7.25 225.98-9.2 224.68-10.28 223.38-11.35 221.5-11.95 219.63-12.55 217.75-13.25 215.88-13.95 214.58-15.35 213.28-16.75 213.28-18.9L213.28-18.9Q213.28-22.05 215.33-23.78 217.38-25.5 220.88-25.5 224.38-25.5 227.38-24.45L227.38-24.45 227.73-24.3 227.08-21.1Q224.08-22.25 221.5-22.25 218.93-22.25 217.98-21.45 217.03-20.65 217.03-18.75L217.03-18.75Q217.03-17.55 218.33-16.7 219.63-15.85 221.5-15.23 223.38-14.6 225.25-13.78 227.13-12.95 228.43-11.3 229.73-9.65 229.73-7.25L229.73-7.25Q229.73-3.75 227.28-1.73 224.83 0.3 220.53 0.3 216.23 0.3 212.88-1.65L212.88-1.65Z" opacity="1" transform="matrix(1,0,0,1,0,0)" fill="#000000" class="undefined-text-0" data-fill-palette-color="primary" id="text-0"></path></svg></g></svg></g><g transform="matrix(1,0,0,1,0,75.84229891037572)"><svg viewBox="0 0 232.20979200000002 11.631259706618964" height="11.631259706618964" width="232.20979200000002"><g transform="matrix(1,0,0,1,0,0)"><svg width="232.20979200000002" viewBox="0.4000000059604645 -35.70000076293945 726.6300048828125 36.400001525878906" height="11.631259706618964" data-palette-color="#32b0c7"><path d="M9.05 0L0.4-35 5.3-35 11.6-6.35 18.2-34.3 23.35-34.3 29.9-6.35 36.25-35 41.1-35 32.5 0 27.35 0 20.7-27.7 14.2 0 9.05 0ZM44.85 0L44.85-35 49.4-35 49.4-20.55 65.5-20.55 65.5-35 70.05-35 70.05 0 65.5 0 65.5-16.1 49.4-16.1 49.4 0 44.85 0ZM76.65 0L76.65-35 95.35-35 95.35-30.85 81.2-30.85 81.2-20.4 92.4-20.4 92.4-16.2 81.2-16.2 81.2-4.15 95.75-4.15 95.75 0 76.65 0ZM100.84 0L100.84-35 109.84-35Q115.34-35 118.42-32.27 121.49-29.55 121.49-24.3L121.49-24.3Q121.49-21.3 120.07-18.88 118.64-16.45 116.09-15.05L116.09-15.05 123.09 0 117.69 0 111.44-13.7Q110.64-13.6 109.79-13.6L109.79-13.6 105.39-13.6 105.39 0 100.84 0ZM105.39-17.8L109.44-17.8Q113.24-17.8 114.99-19.45 116.74-21.1 116.74-24.3L116.74-24.3Q116.74-27.55 114.99-29.2 113.24-30.85 109.44-30.85L109.44-30.85 105.39-30.85 105.39-17.8ZM127.54 0L127.54-35 146.24-35 146.24-30.85 132.09-30.85 132.09-20.4 143.29-20.4 143.29-16.2 132.09-16.2 132.09-4.15 146.64-4.15 146.64 0 127.54 0ZM161.49 0L161.49-35 166.09-35 166.09 0 161.49 0ZM173.08 0L173.08-35 184.28-35Q188.63-35 192.01-32.9 195.38-30.8 197.28-26.85 199.18-22.9 199.18-17.5L199.18-17.5Q199.18-12.1 197.28-8.15 195.38-4.2 192.01-2.1 188.63 0 184.28 0L184.28 0 173.08 0ZM177.63-4.15L183.43-4.15Q188.68-4.15 191.41-7.65 194.13-11.15 194.13-17.5L194.13-17.5Q194.13-23.85 191.41-27.35 188.68-30.85 183.43-30.85L183.43-30.85 177.63-30.85 177.63-4.15ZM204.03 0L204.03-35 222.73-35 222.73-30.85 208.58-30.85 208.58-20.4 219.78-20.4 219.78-16.2 208.58-16.2 208.58-4.15 223.13-4.15 223.13 0 204.03 0ZM246.33 0L243.53-9.5 232.68-9.5 229.88 0 224.98 0 235.73-35 240.43-35 251.18 0 246.33 0ZM233.93-13.75L242.28-13.75 238.08-27.95 233.93-13.75ZM263.18 0.7Q260.73 0.7 258.05 0.13 255.38-0.45 253.68-1.25L253.68-1.25 254.33-6.25Q256.33-5 258.78-4.23 261.23-3.45 263.63-3.45L263.63-3.45Q266.73-3.45 268.48-4.73 270.23-6 270.23-8.45L270.23-8.45Q270.23-10.2 269.4-11.45 268.58-12.7 267.03-13.68 265.48-14.65 262.68-15.9L262.68-15.9Q259.38-17.4 257.45-18.65 255.53-19.9 254.38-21.75 253.23-23.6 253.23-26.35L253.23-26.35Q253.23-29.15 254.68-31.28 256.13-33.4 258.75-34.55 261.38-35.7 264.73-35.7L264.73-35.7Q267.28-35.7 269.55-35.15 271.83-34.6 273.43-33.8L273.43-33.8 272.93-29.1Q268.78-31.55 264.48-31.55L264.48-31.55Q261.58-31.55 259.93-30.35 258.28-29.15 258.28-26.65L258.28-26.65Q258.28-24.95 259.15-23.83 260.03-22.7 261.58-21.83 263.13-20.95 266.28-19.5L266.28-19.5Q270.98-17.4 273.13-14.98 275.28-12.55 275.28-8.9L275.28-8.9Q275.28-4.45 272.03-1.88 268.78 0.7 263.18 0.7L263.18 0.7ZM305.22-18.85Q310.87-16.75 310.87-10L310.87-10Q310.87-5.4 308.2-2.7 305.52 0 300.82 0L300.82 0 289.52 0 289.52-35 298.62-35Q303.27-35 305.82-32.83 308.37-30.65 308.37-26.4L308.37-26.4Q308.37-23.9 307.57-21.93 306.77-19.95 305.22-18.85L305.22-18.85ZM294.07-30.85L294.07-20.4 298.07-20.4Q301.07-20.4 302.3-21.53 303.52-22.65 303.52-25.7L303.52-25.7Q303.52-28.65 302.3-29.75 301.07-30.85 298.07-30.85L298.07-30.85 294.07-30.85ZM300.42-4.15Q302.97-4.15 304.45-5.68 305.92-7.2 305.92-10.15L305.92-10.15Q305.92-13.35 304.5-14.78 303.07-16.2 300.42-16.2L300.42-16.2 294.07-16.2 294.07-4.15 300.42-4.15ZM316.07 0L316.07-35 334.77-35 334.77-30.85 320.62-30.85 320.62-20.4 331.82-20.4 331.82-16.2 320.62-16.2 320.62-4.15 335.17-4.15 335.17 0 316.07 0ZM353.52 0.7Q348.67 0.7 345.07-1.53 341.47-3.75 339.49-7.88 337.52-12 337.52-17.5L337.52-17.5Q337.52-22.95 339.54-27.08 341.57-31.2 345.17-33.45 348.77-35.7 353.32-35.7L353.32-35.7Q357.32-35.7 360.92-34.2L360.92-34.2 360.42-29.95Q357.22-31.55 354.22-31.55L354.22-31.55Q350.52-31.55 347.89-29.7 345.27-27.85 343.92-24.65 342.57-21.45 342.57-17.5L342.57-17.5Q342.57-13.55 343.92-10.35 345.27-7.15 347.89-5.3 350.52-3.45 354.27-3.45L354.27-3.45Q357.52-3.45 360.42-4.95L360.42-4.95 360.92-0.7Q357.72 0.7 353.52 0.7L353.52 0.7ZM377.91 0.7Q373.61 0.7 370.24-1.55 366.86-3.8 364.96-7.93 363.06-12.05 363.06-17.5L363.06-17.5Q363.06-22.95 364.96-27.08 366.86-31.2 370.24-33.45 373.61-35.7 377.91-35.7L377.91-35.7Q382.21-35.7 385.56-33.45 388.91-31.2 390.81-27.08 392.71-22.95 392.71-17.5L392.71-17.5Q392.71-12.05 390.81-7.93 388.91-3.8 385.56-1.55 382.21 0.7 377.91 0.7L377.91 0.7ZM377.91-3.85Q382.71-3.85 385.29-7.68 387.86-11.5 387.86-17.5L387.86-17.5Q387.86-23.5 385.29-27.33 382.71-31.15 377.91-31.15L377.91-31.15Q373.11-31.15 370.51-27.33 367.91-23.5 367.91-17.5L367.91-17.5Q367.91-11.5 370.51-7.68 373.11-3.85 377.91-3.85L377.91-3.85ZM427.56 0L422.66 0 420.36-25.3 411.91-7.25 403.46-25.3 401.11 0 396.26 0 400.06-35 403.91-35 411.91-16.95 419.91-35 423.76-35 427.56 0ZM432.41 0L432.41-35 451.11-35 451.11-30.85 436.96-30.85 436.96-20.4 448.16-20.4 448.16-16.2 436.96-16.2 436.96-4.15 451.51-4.15 451.51 0 432.41 0ZM465.95 0L465.95-35 477.15-35Q481.5-35 484.88-32.9 488.25-30.8 490.15-26.85 492.05-22.9 492.05-17.5L492.05-17.5Q492.05-12.1 490.15-8.15 488.25-4.2 484.88-2.1 481.5 0 477.15 0L477.15 0 465.95 0ZM470.5-4.15L476.3-4.15Q481.55-4.15 484.28-7.65 487-11.15 487-17.5L487-17.5Q487-23.85 484.28-27.35 481.55-30.85 476.3-30.85L476.3-30.85 470.5-30.85 470.5-4.15ZM497.3 0L497.3-35 501.9-35 501.9 0 497.3 0ZM517.2 0.7Q514.75 0.7 512.07 0.13 509.4-0.45 507.7-1.25L507.7-1.25 508.35-6.25Q510.35-5 512.8-4.23 515.25-3.45 517.65-3.45L517.65-3.45Q520.75-3.45 522.5-4.73 524.25-6 524.25-8.45L524.25-8.45Q524.25-10.2 523.42-11.45 522.6-12.7 521.05-13.68 519.5-14.65 516.7-15.9L516.7-15.9Q513.4-17.4 511.47-18.65 509.55-19.9 508.4-21.75 507.25-23.6 507.25-26.35L507.25-26.35Q507.25-29.15 508.7-31.28 510.15-33.4 512.77-34.55 515.4-35.7 518.75-35.7L518.75-35.7Q521.3-35.7 523.57-35.15 525.85-34.6 527.45-33.8L527.45-33.8 526.95-29.1Q522.8-31.55 518.5-31.55L518.5-31.55Q515.6-31.55 513.95-30.35 512.3-29.15 512.3-26.65L512.3-26.65Q512.3-24.95 513.17-23.83 514.05-22.7 515.6-21.83 517.15-20.95 520.3-19.5L520.3-19.5Q525-17.4 527.15-14.98 529.3-12.55 529.3-8.9L529.3-8.9Q529.3-4.45 526.05-1.88 522.8 0.7 517.2 0.7L517.2 0.7ZM548.04 0.7Q543.19 0.7 539.59-1.53 536-3.75 534.02-7.88 532.04-12 532.04-17.5L532.04-17.5Q532.04-22.95 534.07-27.08 536.09-31.2 539.69-33.45 543.29-35.7 547.84-35.7L547.84-35.7Q551.84-35.7 555.44-34.2L555.44-34.2 554.94-29.95Q551.75-31.55 548.75-31.55L548.75-31.55Q545.04-31.55 542.42-29.7 539.79-27.85 538.44-24.65 537.09-21.45 537.09-17.5L537.09-17.5Q537.09-13.55 538.44-10.35 539.79-7.15 542.42-5.3 545.04-3.45 548.79-3.45L548.79-3.45Q552.04-3.45 554.94-4.95L554.94-4.95 555.44-0.7Q552.25 0.7 548.04 0.7L548.04 0.7ZM572.44 0.7Q568.14 0.7 564.77-1.55 561.39-3.8 559.49-7.93 557.59-12.05 557.59-17.5L557.59-17.5Q557.59-22.95 559.49-27.08 561.39-31.2 564.77-33.45 568.14-35.7 572.44-35.7L572.44-35.7Q576.74-35.7 580.09-33.45 583.44-31.2 585.34-27.08 587.24-22.95 587.24-17.5L587.24-17.5Q587.24-12.05 585.34-7.93 583.44-3.8 580.09-1.55 576.74 0.7 572.44 0.7L572.44 0.7ZM572.44-3.85Q577.24-3.85 579.82-7.68 582.39-11.5 582.39-17.5L582.39-17.5Q582.39-23.5 579.82-27.33 577.24-31.15 572.44-31.15L572.44-31.15Q567.64-31.15 565.04-27.33 562.44-23.5 562.44-17.5L562.44-17.5Q562.44-11.5 565.04-7.68 567.64-3.85 572.44-3.85L572.44-3.85ZM611.29-35L616.14-35 605.04 0 599.79 0 588.69-35 593.59-35 602.44-5.85 611.29-35ZM619.89 0L619.89-35 638.59-35 638.59-30.85 624.44-30.85 624.44-20.4 635.64-20.4 635.64-16.2 624.44-16.2 624.44-4.15 638.99-4.15 638.99 0 619.89 0ZM644.08 0L644.08-35 653.08-35Q658.58-35 661.66-32.27 664.73-29.55 664.73-24.3L664.73-24.3Q664.73-21.3 663.31-18.88 661.88-16.45 659.33-15.05L659.33-15.05 666.33 0 660.93 0 654.68-13.7Q653.88-13.6 653.03-13.6L653.03-13.6 648.63-13.6 648.63 0 644.08 0ZM648.63-17.8L652.68-17.8Q656.48-17.8 658.23-19.45 659.98-21.1 659.98-24.3L659.98-24.3Q659.98-27.55 658.23-29.2 656.48-30.85 652.68-30.85L652.68-30.85 648.63-30.85 648.63-17.8ZM671.18 0L671.18-35 675.78-35 675.78 0 671.18 0ZM682.78 0L682.78-35 701.48-35 701.48-30.85 687.33-30.85 687.33-20.4 698.53-20.4 698.53-16.2 687.33-16.2 687.33-4.15 701.88-4.15 701.88 0 682.78 0ZM714.93 0.7Q712.48 0.7 709.8 0.13 707.13-0.45 705.43-1.25L705.43-1.25 706.08-6.25Q708.08-5 710.53-4.23 712.98-3.45 715.38-3.45L715.38-3.45Q718.48-3.45 720.23-4.73 721.98-6 721.98-8.45L721.98-8.45Q721.98-10.2 721.15-11.45 720.33-12.7 718.78-13.68 717.23-14.65 714.43-15.9L714.43-15.9Q711.13-17.4 709.2-18.65 707.28-19.9 706.13-21.75 704.98-23.6 704.98-26.35L704.98-26.35Q704.98-29.15 706.43-31.28 707.88-33.4 710.5-34.55 713.13-35.7 716.48-35.7L716.48-35.7Q719.03-35.7 721.3-35.15 723.58-34.6 725.18-33.8L725.18-33.8 724.68-29.1Q720.53-31.55 716.23-31.55L716.23-31.55Q713.33-31.55 711.68-30.35 710.03-29.15 710.03-26.65L710.03-26.65Q710.03-24.95 710.9-23.83 711.78-22.7 713.33-21.83 714.88-20.95 718.03-19.5L718.03-19.5Q722.73-17.4 724.88-14.98 727.03-12.55 727.03-8.9L727.03-8.9Q727.03-4.45 723.78-1.88 720.53 0.7 714.93 0.7L714.93 0.7Z" opacity="1" transform="matrix(1,0,0,1,0,0)" fill="#000000" class="undefined-text-1" data-fill-palette-color="secondary" id="text-1"></path></svg></g></svg></g></svg></g></svg></g><g><svg viewBox="0 0 122.9032656421648 120.8884580086867" height="120.8884580086867" width="122.9032656421648"><g><svg xmlns="http://www.w3.org/2000/svg" xmlns:xlink="http://www.w3.org/1999/xlink" version="1.1" x="0" y="0" viewBox="2 2 61 60" style="enable-background:new 0 0 64 64;" xml:space="preserve" height="120.8884580086867" width="122.9032656421648" class="icon-icon-0" data-fill-palette-color="accent" id="icon-0"><path d="M48.052 10.738c-0.119 0.355-0.029 0.748 0.232 1.016l1.647 1.688-0.391 2.396c-0.062 0.378 0.098 0.758 0.411 0.979 0.313 0.221 0.726 0.242 1.06 0.058L53 15.776l1.988 1.099C55.14 16.958 55.306 17 55.472 17c0.202 0 0.404-0.062 0.576-0.183 0.313-0.22 0.473-0.601 0.411-0.979l-0.391-2.396 1.647-1.688c0.262-0.268 0.352-0.66 0.232-1.016s-0.427-0.615-0.797-0.671l-2.236-0.342-1.009-2.15C53.741 7.224 53.388 7 53 7s-0.741 0.224-0.905 0.575l-1.009 2.15-2.236 0.342C48.479 10.124 48.171 10.383 48.052 10.738zM51.915 11.622c0.33-0.051 0.613-0.262 0.754-0.564L53 10.354l0.331 0.705c0.142 0.302 0.424 0.513 0.754 0.564l0.84 0.128-0.641 0.657c-0.222 0.227-0.322 0.546-0.271 0.859l0.141 0.862-0.67-0.37c-0.15-0.083-0.317-0.125-0.484-0.125s-0.333 0.042-0.484 0.125l-0.67 0.37 0.141-0.862c0.051-0.313-0.049-0.632-0.271-0.859l-0.641-0.657L51.915 11.622z" fill="#000000" data-fill-palette-color="accent"></path><path d="M26 26c-6.617 0-12 5.383-12 12s5.383 12 12 12 12-5.383 12-12S32.617 26 26 26zM20.297 46.203c0.47-1.49 1.485-2.717 2.811-3.45C23.444 44.042 24.608 45 26 45c1.396 0 2.562-0.962 2.895-2.255 0.488 0.27 0.943 0.607 1.348 1.012 0.687 0.687 1.179 1.524 1.468 2.441C30.09 47.33 28.123 48 26 48 23.88 48 21.916 47.333 20.297 46.203zM22.027 36.268C23.205 35.451 24.563 35 26 35s2.795 0.451 3.973 1.268C29.832 38.347 28.114 40 26 40S22.168 38.347 22.027 36.268zM22.839 33.577C23.571 32.625 24.709 32 26 32s2.429 0.625 3.161 1.577C28.16 33.2 27.097 33 26 33S23.84 33.2 22.839 33.577zM26 42c0.333 0 0.66 0.033 0.983 0.086C26.937 42.595 26.521 43 26 43c-0.521 0-0.936-0.405-0.982-0.913C25.339 42.033 25.666 42 26 42zM33.311 44.8c-0.397-0.908-0.943-1.746-1.654-2.457-0.627-0.627-1.343-1.129-2.115-1.511C31.029 39.738 32 37.983 32 36c0-3.309-2.691-6-6-6s-6 2.691-6 6c0 1.985 0.973 3.743 2.463 4.836-1.668 0.827-3.021 2.221-3.784 3.954C17.022 43.004 16 40.622 16 38c0-5.514 4.486-10 10-10s10 4.486 10 10C36 40.627 34.974 43.014 33.311 44.8z" fill="#000000" data-fill-palette-color="accent"></path><path d="M43.854 41.241l0.25-0.063c0.402-0.102 0.699-0.44 0.748-0.852C44.951 39.472 45 38.711 45 38s-0.049-1.472-0.149-2.326c-0.048-0.412-0.346-0.75-0.748-0.852l-0.249-0.063c-1.311-0.331-2.66-0.672-3.492-1.044-0.089-0.302-0.183-0.591-0.284-0.87 0.463-0.837 1.399-1.975 2.308-3.079l0.083-0.101c0.26-0.316 0.302-0.759 0.104-1.118-0.718-1.305-1.607-2.543-2.642-3.683-0.284-0.312-0.73-0.412-1.122-0.252l-0.131 0.054c-1.328 0.548-2.812 1.161-3.722 1.313-0.161-0.12-0.324-0.236-0.488-0.35-0.145-0.922-0.03-2.566 0.073-4.037l0.012-0.17c0.029-0.411-0.197-0.797-0.57-0.974-1.391-0.658-2.819-1.139-4.246-1.43-0.409-0.083-0.851 0.129-1.07 0.488-0.792 1.294-1.756 2.873-2.441 3.499-0.149-0.008-0.302-0.008-0.451 0-0.684-0.626-1.649-2.206-2.458-3.528-0.22-0.359-0.639-0.545-1.052-0.458-1.426 0.29-2.854 0.771-4.246 1.43-0.373 0.176-0.599 0.562-0.57 0.974l0.012 0.171c0.103 1.47 0.218 3.113 0.073 4.036-0.165 0.113-0.328 0.23-0.489 0.35-0.911-0.152-2.398-0.767-3.729-1.317l-0.123-0.051c-0.39-0.159-0.838-0.06-1.122 0.252-1.036 1.14-1.925 2.379-2.643 3.683-0.198 0.359-0.156 0.802 0.104 1.118l0.08 0.097c0.91 1.105 1.848 2.245 2.311 3.083-0.101 0.278-0.195 0.567-0.284 0.87-0.833 0.373-2.186 0.715-3.499 1.047l-0.242 0.061c-0.402 0.102-0.699 0.44-0.748 0.852C7.049 36.528 7 37.289 7 38s0.049 1.472 0.149 2.326c0.048 0.412 0.346 0.75 0.748 0.853l0.234 0.059c1.316 0.332 2.671 0.674 3.506 1.048 0.089 0.302 0.183 0.591 0.284 0.87-0.463 0.837-1.399 1.975-2.308 3.079l-0.083 0.101c-0.26 0.316-0.302 0.759-0.104 1.118 0.718 1.305 1.607 2.543 2.642 3.683 0.284 0.312 0.733 0.414 1.122 0.252l0.128-0.053c1.329-0.549 2.813-1.162 3.724-1.314 0.16 0.12 0.323 0.237 0.488 0.35 0.145 0.923 0.03 2.566-0.073 4.036l-0.012 0.171c-0.029 0.411 0.197 0.797 0.57 0.974 1.391 0.658 2.819 1.139 4.246 1.43 0.412 0.083 0.852-0.129 1.07-0.488 0.792-1.294 1.756-2.873 2.441-3.499 0.149 0.008 0.302 0.008 0.451 0 0.685 0.627 1.651 2.208 2.459 3.528C28.869 56.823 29.194 57 29.538 57c0.066 0 0.133-0.006 0.199-0.02 1.426-0.29 2.854-0.771 4.246-1.43 0.373-0.176 0.599-0.562 0.57-0.974l-0.012-0.165c-0.103-1.472-0.218-3.118-0.073-4.042 0.165-0.113 0.328-0.23 0.489-0.35 0.91 0.152 2.395 0.765 3.724 1.314l0.128 0.053c0.392 0.163 0.839 0.061 1.122-0.252 1.036-1.14 1.925-2.378 2.643-3.682 0.197-0.359 0.156-0.802-0.104-1.118l-0.086-0.104c-0.908-1.103-1.843-2.239-2.305-3.076 0.101-0.279 0.195-0.567 0.284-0.87C41.194 41.913 42.543 41.572 43.854 41.241zM38.069 43.596c0.427 1.004 1.371 2.201 2.416 3.475-0.46 0.761-0.988 1.496-1.576 2.194-1.62-0.665-3.126-1.246-4.217-1.279-0.232-0.014-0.465 0.069-0.65 0.214-0.323 0.255-0.658 0.495-1.004 0.719-0.199 0.129-0.346 0.324-0.415 0.552-0.32 1.062-0.237 2.737-0.114 4.55-0.825 0.353-1.659 0.636-2.493 0.845-1.012-1.645-1.979-3.125-2.941-3.737-0.161-0.102-0.347-0.156-0.537-0.156-0.013 0-0.025 0-0.038 0l-0.246 0.015c-0.169 0.012-0.339 0.012-0.508 0L25.5 50.973c-0.202-0.007-0.403 0.047-0.575 0.156-0.958 0.61-1.921 2.08-2.941 3.737-0.834-0.21-1.669-0.493-2.494-0.845 0.124-1.813 0.207-3.488-0.114-4.55-0.068-0.227-0.215-0.422-0.415-0.551-0.346-0.224-0.681-0.463-1.003-0.718-0.185-0.147-0.422-0.229-0.651-0.215-1.091 0.033-2.597 0.614-4.217 1.279-0.587-0.698-1.115-1.433-1.575-2.195 1.044-1.274 1.989-2.471 2.416-3.475 0.104-0.244 0.106-0.518 0.008-0.764-0.185-0.459-0.344-0.948-0.489-1.495-0.068-0.257-0.236-0.476-0.466-0.609-0.919-0.532-2.36-0.922-3.918-1.318C9.021 38.906 9 38.44 9 38s0.021-0.906 0.065-1.411c1.559-0.396 3-0.786 3.918-1.318 0.23-0.133 0.397-0.352 0.466-0.609 0.145-0.548 0.305-1.037 0.489-1.495 0.099-0.245 0.096-0.52-0.007-0.764-0.426-1.004-1.371-2.201-2.416-3.475 0.46-0.762 0.988-1.496 1.575-2.195 1.621 0.666 3.126 1.247 4.218 1.279 0.229 0.006 0.465-0.069 0.65-0.214 0.323-0.255 0.658-0.495 1.004-0.719 0.199-0.129 0.346-0.324 0.415-0.551 0.32-1.062 0.238-2.737 0.114-4.55 0.825-0.353 1.659-0.636 2.494-0.845 1.012 1.645 1.978 3.125 2.941 3.737 0.172 0.109 0.371 0.164 0.575 0.156l0.245-0.015c0.168-0.012 0.34-0.012 0.508 0l0.245 0.015c0.202 0.009 0.403-0.047 0.575-0.156 0.959-0.61 1.921-2.08 2.942-3.737 0.834 0.21 1.669 0.493 2.494 0.845-0.124 1.813-0.207 3.488 0.114 4.55 0.068 0.227 0.215 0.422 0.415 0.551 0.347 0.224 0.681 0.463 1.004 0.719 0.185 0.146 0.404 0.224 0.65 0.214 1.091-0.033 2.597-0.614 4.218-1.279 0.587 0.698 1.115 1.433 1.575 2.195-1.044 1.274-1.989 2.471-2.416 3.475-0.104 0.244-0.106 0.518-0.008 0.764 0.185 0.459 0.344 0.948 0.489 1.495 0.068 0.257 0.236 0.476 0.466 0.609 0.919 0.532 2.36 0.922 3.918 1.317C42.979 37.094 43 37.56 43 38s-0.021 0.906-0.065 1.411c-1.559 0.396-3 0.785-3.919 1.318-0.23 0.133-0.397 0.352-0.465 0.609-0.145 0.548-0.305 1.037-0.489 1.495C37.963 43.077 37.965 43.352 38.069 43.596z" fill="#000000" data-fill-palette-color="accent"></path><path d="M46.744 4.198l1.252 1.56c0.467-0.375 0.976-0.697 1.513-0.958L48.635 3C47.963 3.327 47.327 3.729 46.744 4.198z" fill="#000000" data-fill-palette-color="accent"></path><path d="M53.01 20v2c0.749 0 1.497-0.084 2.224-0.25l-0.445-1.95C54.207 19.933 53.609 20 53.01 20z" fill="#000000" data-fill-palette-color="accent"></path><path d="M45.202 13.796l-1.949 0.446c0.167 0.729 0.417 1.44 0.744 2.114l1.8-0.873C45.535 14.946 45.335 14.378 45.202 13.796z" fill="#000000" data-fill-palette-color="accent"></path><path d="M46.775 19.827l1.246-1.564c-0.468-0.373-0.895-0.798-1.269-1.265l-1.561 1.25C45.659 18.831 46.191 19.362 46.775 19.827z" fill="#000000" data-fill-palette-color="accent"></path><path d="M59.24 19.815l-1.249-1.562c-0.468 0.375-0.978 0.696-1.514 0.955l0.87 1.801C58.018 20.685 58.654 20.283 59.24 19.815z" fill="#000000" data-fill-palette-color="accent"></path><path d="M48.671 21.016c0.674 0.325 1.386 0.573 2.116 0.738l0.441-1.951c-0.583-0.131-1.151-0.33-1.69-0.589L48.671 21.016z" fill="#000000" data-fill-palette-color="accent"></path><path d="M60.196 8.501c0.261 0.537 0.462 1.104 0.598 1.687l1.948-0.453c-0.169-0.729-0.421-1.438-0.748-2.11L60.196 8.501z" fill="#000000" data-fill-palette-color="accent"></path><path d="M62.013 16.337l-1.802-0.868c-0.259 0.538-0.58 1.048-0.954 1.516l1.563 1.247C61.288 17.647 61.688 17.01 62.013 16.337z" fill="#000000" data-fill-palette-color="accent"></path><path d="M59.208 4.16l-1.242 1.567c0.469 0.372 0.896 0.796 1.271 1.262l1.559-1.254C60.327 5.154 59.793 4.624 59.208 4.16z" fill="#000000" data-fill-palette-color="accent"></path><path d="M46.732 7.028l-1.565-1.244C44.7 6.37 44.301 7.009 43.978 7.682l1.804 0.864C46.04 8.008 46.359 7.497 46.732 7.028z" fill="#000000" data-fill-palette-color="accent"></path><path d="M63 11.971l-0.331-0.003L61 12c0 0.601-0.067 1.2-0.198 1.78l1.95 0.442C62.917 13.498 63 12.75 63 11.971z" fill="#000000" data-fill-palette-color="accent"></path><path d="M52.975 4l-0.006-2c-0.75 0.002-1.498 0.088-2.223 0.255l0.449 1.949C51.775 4.071 52.373 4.002 52.975 4z" fill="#000000" data-fill-palette-color="accent"></path><path d="M43 12v0.019L45 12c0-0.596 0.065-1.189 0.195-1.764l-1.951-0.438C43.082 10.516 43 11.257 43 12z" fill="#000000" data-fill-palette-color="accent"></path><path d="M57.31 2.975c-0.675-0.323-1.388-0.57-2.118-0.733l-0.437 1.952c0.583 0.13 1.152 0.327 1.691 0.585L57.31 2.975z" fill="#000000" data-fill-palette-color="accent"></path><path d="M26 62c13.233 0 24-10.767 24-24h-2c0 12.131-9.869 22-22 22S4 50.131 4 38s9.869-22 22-22h11.15l-2.774 2.219 1.249 1.562 5-4-0.004-0.005c0.143-0.114 0.26-0.263 0.324-0.444 0.14-0.401 0.013-0.847-0.319-1.112l-5-4-1.249 1.562L37.149 14H26C12.767 14 2 24.767 2 38S12.767 62 26 62z" fill="#000000" data-fill-palette-color="accent"></path><rect x="48" y="34" width="2" height="2" fill="#000000" data-fill-palette-color="accent"></rect></svg></g></svg></g></svg></g><defs></defs></svg><rect width="395.52" height="89.72239132403469" fill="none" stroke="none" visibility="hidden"></rect></g></svg></g></svg>